<?xml version="1.0" encoding="utf-8"?>

<svg xmlns="http://www.w3.org/2000/svg" xmlns:xlink="http://www.w3.org/1999/xlink" x="0px" y="0px" viewBox="0 0 291.5 145.6">
	<g>
		<path class="circle" d="M141.4,13.7c27.8-0.9,53.4,6.3,77.2,20.7c6.5,3.9,12.7,8.5,18.9,12.8c0.6,0.3,1,0.7,1.4,1.2
			c18.3,17.4,33.5,36.9,41.7,61.2c1.2,3.5,2.4,6.9,2.4,10.5c0,4.2-0.9,8.1-4.8,10.7c-4.5,3-10.5,0.9-11.5-4.5
			c-6.9-34.4-27.5-59-56.3-77.4c-12.4-7.9-25.9-13.1-40.2-15.7c-10.8-2-21.9-3.3-33-2.9c-35,1-64.1,15-88.7,39
			c-5.2,5-9.8,10.4-13.7,16.6c-2.3,3.7-5.6,7.1-7.8,10.9c-1.3,2.3-2.6,4.5-3.3,7.1c-0.4,1.4-1.3,2.9-2.4,3.9
			c-3.5,2.9-7.9,2.4-10.5-1.4c-2.7-3.9-3.6-8.1-1-13.1c10.2-20.2,25.3-36,42-50.7c4.8-4.2,10.5-6.9,16-10.2
			c17.8-10.8,37.4-16.1,58-18.6C130.9,13.3,136.2,13.7,141.4,13.7L141.4,13.7z"/>
		<path class="smile" d="M136.8,101.6c-11.2-0.1-18.7-7.5-19-18.7c-0.1-4.8,2.7-7.6,7.1-7.1c2.6,0.3,4,1.9,4.2,4.5
			c0.1,1.7,0.1,3.6,0.6,5.5c0.6,2.7,2.3,4.6,5.2,5.2c2.9,0.6,5.3-0.3,7.1-2.7c1.2-1.6,1.9-3.2,2.6-5c1.2-2.9,3.7-4.5,6.5-4.2
			c3.6,0.4,5.3,2.7,5,6.5c-0.9,8.9-8.1,15.7-17.6,16.1C137.8,101.8,137.4,101.6,136.8,101.6L136.8,101.6z"/>
		<path class="eye_dx" d="M84.4,66.1c5.5,0,10.1,4.8,10.1,10.4c0,5.8-4.8,10.4-10.4,10.4c-5.5-0.1-10.4-4.9-10.4-10.2
			C73.8,71,78.8,65.9,84.4,66.1z"/>
		<path class="eye_sx" d="M210.1,97.5c0,5.5-5,10.5-10.4,10.5s-10.1-5-10.2-10.4c0-5.8,4.6-10.4,10.4-10.4
			C205.5,87.1,210.1,91.7,210.1,97.5z"/>
	</g>

</svg>
