<svg width="730" height="134" viewBox="0 0 730 134" fill="none" xmlns="http://www.w3.org/2000/svg">
<path d="M673.956 63.6097C673.343 59.8415 676.633 56.5953 680.15 59.0923C682.147 60.409 683.077 62.7017 684.393 64.6085C692.039 78.5919 701.047 37.2092 717.157 51.0791C724.803 57.6168 726.845 67.5596 729.886 76.617C730.566 78.0698 728.048 84.494 726.709 85.4474C724.508 87.0137 722.171 85.8106 721.876 82.7461C721.468 78.6373 720.288 74.7329 718.813 70.9192C717.27 66.9694 715.024 63.4281 712.369 60.1366C711.121 58.5702 709.987 58.5248 708.739 60.1366C706.538 62.9968 704.269 65.8343 702.023 68.6719C697.53 74.801 689.68 82.1786 681.942 76.7986C677.223 73.7114 674.16 69.4891 673.956 63.6097Z" fill="#878787"/>
<path d="M56.0444 63.6097C56.657 59.8415 53.367 56.5953 49.8501 59.0923C47.8534 60.409 46.9232 62.7017 45.6072 64.6085C37.9608 78.5919 28.953 37.2092 12.8434 51.0791C5.19697 57.6168 3.15491 67.5596 0.114497 76.617C-0.566191 78.0698 1.95236 84.494 3.29104 85.4474C5.49194 87.0137 7.82897 85.8106 8.12393 82.7461C8.53235 78.6373 9.71221 74.7329 11.187 70.9192C12.7299 66.9694 14.9762 63.4281 17.6309 60.1366C18.8788 58.5702 20.0133 58.5248 21.2612 60.1366C23.4621 62.9968 25.7311 65.8343 27.9773 68.6719C32.4699 74.801 40.3205 82.1786 48.0577 76.7986C52.7771 73.7114 55.8402 69.4891 56.0444 63.6097Z" fill="#878787"/>
<g clip-path="url(#clip0_108_62)">
<path d="M202.826 94.842C202.826 101.834 203.076 108.167 199.965 114.251C197.49 118.564 192.926 118.995 189.52 115.272C185.138 109.643 185.183 95.6592 183.639 88.2135C183.412 86.3748 182.617 86.1251 181.051 86.1251C164.475 86.284 147.877 86.2159 131.415 84.2864C129.803 84.1048 128.985 84.3999 128.622 86.1251C125.647 99.5864 123.218 113.161 123.49 127.008C123.808 133.705 116.224 135.453 112.977 130.05C106.847 115.636 109.14 99.087 111.365 84.0367C112.546 79.315 106.597 80.5408 104.394 77.3401C100.625 73.5491 101.987 68.1919 107.096 66.5801C110.162 64.923 115.044 68.487 115.884 64.1966C122.764 43.2215 132.346 11.8043 153.236 1.294C181.437 -9.32975 198.603 47.8751 200.896 68.2827C200.987 76.7272 210.455 68.6232 212.385 75.6376C213.362 80.2003 207.844 82.1298 204.211 82.3114C202.576 82.4249 202.077 83.1968 202.44 84.695C203.28 88.2135 202.508 91.8002 202.826 94.8193V94.842ZM164.43 70.9613C167.54 70.9613 172.763 70.9613 177.985 70.9613C181.8 70.9613 181.346 71.0975 180.869 67.8059C178.803 53.4593 174.239 39.998 166.632 27.6037C165.293 25.4244 163.839 23.336 162.136 21.4065C159.866 18.8187 159.366 18.7959 156.846 21.2703C145.606 33.9598 139.793 50.4175 134.14 66.1261C133.118 69.1453 133.163 69.2361 136.342 69.4404C144.993 69.9625 153.644 70.3938 164.407 70.984L164.43 70.9613Z" fill="#030303"/>
<path d="M627.32 65.9671C627.07 77.2946 626.185 88.5994 625.186 99.8814C624.822 105.852 619.872 111.232 613.832 110.414C600.913 108.303 605.318 91.3461 605.476 82.0163C605.704 78.3842 605.885 78.3615 602.207 78.4523C597.416 78.5658 592.647 78.8155 587.856 78.8382C586.131 78.8382 585.881 79.5419 585.858 81.0174C585.699 87.4643 585.404 93.9112 585.222 100.335C585.45 117.678 564.56 117.474 564.991 100.54C564.969 89.1896 566.172 77.9075 567.285 66.6254C568.261 57.6134 567.807 48.2836 570.463 39.544C572.007 33.7554 579.864 33.3468 581.885 39.0446C584.292 44.4245 584.541 50.2358 585.154 55.979C584.905 63.1977 584.973 63.9695 592.193 61.8811C614.286 60.1332 604.409 66.0579 609.723 37.9549C610.495 33.6646 611.857 27.6036 617.238 27.6036C624.936 27.8533 624.822 38.0457 625.753 43.6981C626.571 51.0984 627.615 58.476 627.275 65.9671H627.32Z" fill="#030303"/>
<path d="M379.095 67.5335C388.927 53.5501 397.987 39.2489 410.634 27.7852C414.698 24.539 419.535 28.1938 417.9 32.7339C416.946 37.1604 414.744 41.0195 412.655 44.9239C397.033 74.0031 379.277 101.834 359.931 128.552C356.752 132.729 346.602 137.382 344.127 130.55C341.675 124.489 344.513 118.473 348.146 113.524C354.618 103.967 361.066 94.3652 367.606 84.8538C368.741 83.2194 369.059 82.2206 367.083 80.9494C364.268 79.1106 362.247 76.3866 360.294 73.6625C351.984 61.6541 343.015 49.8045 336.998 36.4567C334.591 30.9632 340.653 25.2655 345.989 27.876C358.955 35.2763 370.194 55.298 379.095 67.5562V67.5335Z" fill="#030303"/>
<path d="M286.499 80.0413C287.021 70.4391 285.863 60.9504 284.569 51.4616C283.888 46.513 284.864 42.041 287.839 37.9095C301.916 22.0874 337.27 39.4305 321.194 61.132C316.426 65.2634 335.726 64.1284 339.064 83.3783C341.266 102.038 312.588 105.738 299.396 101.697C298.601 101.425 297.92 101.675 297.171 101.924C283.706 106.169 286.885 88.0772 286.522 80.0413H286.499ZM308.501 85.9661C311.135 85.7618 329.505 86.1477 324.736 80.9266C319.355 74.1392 309.841 73.4582 301.871 73.0042C300.645 72.9588 300.758 73.7987 300.781 74.5705C300.849 77.6805 301.008 80.7904 300.963 83.9004C300.827 87.4643 306.276 85.444 308.524 85.9661H308.501ZM304.119 44.6742C301.599 44.7877 297.557 44.8558 297.693 48.0566C298.011 51.4616 298.42 54.8667 298.806 58.2717C298.874 58.9073 299.033 59.7472 299.986 59.4067C303.892 57.9312 308.047 56.9324 311.09 53.7317C315.881 49.0781 308.569 44.3791 304.119 44.6742Z" fill="#030303"/>
<path d="M522.485 78.2026C517.603 77.8621 512.721 77.5897 507.862 77.0903C506.409 76.9314 505.932 77.2719 505.614 78.6339C503.889 85.3986 502.413 92.2541 500.347 98.9053C499.347 101.334 497.531 102.901 494.761 102.946C487.881 102.832 487.268 94.1382 487.835 88.9399C490.447 70.4618 495.419 48.2382 510.95 36.3432C538.38 20.1579 550.527 77.8621 549.846 96.204C549.914 103.241 542.467 110.074 536.79 103.286C534.383 100.335 533.657 96.7261 533.044 93.094C529.342 76.6136 534.542 78.2253 522.508 78.2026H522.485ZM510.405 63.9468C515.628 63.7425 520.487 64.0376 525.323 64.764C526.118 64.8775 527.39 65.218 526.845 63.6063C525.8 61.359 521.645 45.9909 518.171 50.6444C514.674 54.4808 512.426 58.9754 510.383 63.9468H510.405Z" fill="#030303"/>
<path d="M450.188 107.872C435.52 108.371 419.444 104.762 420.874 86.806C421.896 70.2121 427.709 54.4354 430.388 38.1819C434.158 31.3718 438.994 38.0911 444.33 37.4782C450.007 37.6144 455.683 37.7733 461.36 37.9095C465.106 38.0457 468.989 38.2046 472.554 39.4759C478.162 41.2465 478.753 48.3971 473.258 50.8033C464.675 54.9121 451.573 53.6863 442.423 51.5751C441.31 51.2573 440.561 51.1892 440.311 52.6647C439.607 56.5919 438.858 60.5418 437.927 64.4235C437.518 66.1714 438.29 66.2622 439.584 66.2168C442.831 66.126 446.078 66.3303 449.098 67.5562C455.91 69.5311 456.228 75.1835 449.711 77.9756C443.83 81.9028 433.817 77.9075 434.975 83.2194C434.657 90.7559 434.226 91.7093 442.377 91.8682C450.756 92.7989 459.952 91.2326 467.536 95.5457C471.6 97.793 471.668 102.129 467.627 104.49C462.609 107.713 455.797 107.827 450.211 107.849L450.188 107.872Z" fill="#030303"/>
<path d="M224.851 60.6326C224.851 53.5274 224.851 46.4222 224.851 39.2943C224.375 34.5726 226.804 29.2153 231.686 28.6705C239.406 27.3312 242.176 35.9119 241.995 42.1772C242.948 56.7054 242.085 71.3017 243.312 85.8072C243.425 87.3962 244.106 88.2135 245.832 88.1454C249.488 88.0318 253.166 88.1454 256.822 87.941C262.43 87.6686 275.373 91.0964 269.787 98.6102C266.472 102.719 262.249 104.921 257.049 105.693C252.054 106.419 247.058 106.669 242.108 105.942C219.765 103.604 225.941 76.5455 224.965 60.6099C224.942 60.6099 224.897 60.6099 224.874 60.6099L224.851 60.6326Z" fill="#030303"/>
</g>
<defs>
<clipPath id="clip0_108_62">
<rect width="525.173" height="134" fill="white" transform="translate(102.215)"/>
</clipPath>
</defs>
</svg>
