<?xml version="1.0" encoding="utf-8"?>
<!-- Generator: Adobe Illustrator 27.0.0, SVG Export Plug-In . SVG Version: 6.00 Build 0)  -->
<svg version="1.1" id="Layer_1" xmlns="http://www.w3.org/2000/svg" xmlns:xlink="http://www.w3.org/1999/xlink" x="0px" y="0px"
	 viewBox="0 0 620 620" style="enable-background:new 0 0 620 620;" xml:space="preserve">
<path d="M440.3,247.8c2.7-0.1,5.4-0.2,8.1-0.1c1.3,0,2.6,0.1,3.9,0.2c0.5,0,1.2,0.3,1.6,0.2c-1.3-0.2-1.5-0.2-0.6-0.1
	c0.3,0,0.5,0.1,0.8,0.1c1.2,0.2,2.3,0.5,3.4,0.9c0.7,0.2,1.3,0.4,2,0.7l0.5,0.2c0.8,0.3,0.7,0.3-0.5-0.2c0.2,0.3,1.1,0.5,1.5,0.7
	c0.7,0.3,1.3,0.6,2,0.9c1.2,0.6,2.5,1.2,3.7,1.8c2.1,1,4.1,1.5,6.4,0.8c1.9-0.5,4-2,5-3.8c2-3.7,1.2-9.4-3-11.4
	c-5.3-2.5-10.7-5.4-16.5-6.6c-5.8-1.2-12-1.1-18.1-0.9c-4.4,0.1-8.5,3.7-8.3,8.3C432.2,244,435.7,247.9,440.3,247.8L440.3,247.8z"/>
<path d="M162.5,201.8c2.5-1,5-2,7.6-2.8c1.2-0.4,2.4-0.8,3.7-1.1c0.5-0.1,1.2-0.2,1.6-0.4c-1.3,0.3-1.5,0.3-0.6,0.1
	c0.3-0.1,0.5-0.1,0.8-0.1c1.2-0.2,2.3-0.3,3.5-0.3c0.7,0,1.4,0,2.1,0l0.5,0c0.9,0,0.7,0-0.5-0.1c0.3,0.2,1.2,0.1,1.6,0.1
	c0.7,0.1,1.5,0.1,2.2,0.2c1.3,0.1,2.7,0.3,4.1,0.4c2.3,0.2,4.4,0,6.3-1.4c1.6-1.1,3.1-3.3,3.4-5.3c0.6-4.1-2-9.3-6.6-9.7
	c-5.9-0.6-11.9-1.5-17.8-0.6c-5.9,0.9-11.7,3-17.4,5.2c-4.1,1.6-6.8,6.4-5,10.6C153.6,200.9,158.1,203.4,162.5,201.8L162.5,201.8z"
	/>
</svg>
