<svg viewBox="0 0 620 620" fill="none" xmlns="http://www.w3.org/2000/svg">
<path d="M310.057 619.996C275.241 619.254 243.47 614.84 212.791 604.176C198.661 599.254 184.61 593.863 171.144 587.457C160.762 582.496 151.082 575.933 141.48 569.527C129.927 561.832 118.803 553.512 107.484 545.465C106.82 544.996 106.118 544.566 105.61 543.941C96.6723 532.496 84.6506 524.137 75.6343 512.613C63.3394 496.871 51.669 480.816 40.7402 464.137C31.841 450.543 25.7131 435.738 20.0925 420.621C13.223 402.222 6.74377 383.668 3.81641 364.176C2.21612 353.551 1.24033 342.808 0.693893 332.066C0.0693893 320.426 -0.242862 308.707 0.225515 297.066C1.82581 255.738 11.3104 216.246 28.9527 178.824C44.7214 145.347 65.7203 115.543 92.3007 89.8006C102.761 79.6444 113.573 69.8787 124.346 60.0741C126.648 58.0037 129.303 56.285 131.996 54.7225C146.203 46.3241 160.45 38.0428 174.696 29.7225C176.335 28.7459 178.053 27.8866 179.809 27.1834C215.367 12.9647 251.861 2.57406 290.424 0.50375C331.407 -1.72281 371.22 3.39437 410.095 16.5975C429.845 23.2772 448.463 32.2616 466.456 42.535C477.424 48.8241 487.572 56.5194 498.033 63.6288C500.609 65.3866 502.834 67.6912 505.527 69.2147C514.114 74.0584 520.515 81.0116 526.565 88.7069C531.17 94.6053 537.337 99.2537 542.373 104.84C580.975 147.965 604.55 198.316 614.464 255.191C618.445 278.082 619.811 301.168 618.757 324.332C616.923 363.941 608.18 402.027 591.942 438.238C579.921 465.035 564.074 489.449 545.183 511.91C541.514 516.285 538.118 520.933 534.293 525.23C522.857 538.082 509.04 548.277 495.301 558.394C471.491 575.972 445.731 590.191 417.862 600.426C389.72 610.738 360.798 617.144 330.861 618.98C323.133 619.449 315.405 619.683 310.096 619.918L310.057 619.996ZM34.1439 308.629C34.3 326.402 35.2367 344.918 39.0618 363.082C47.2194 401.988 62.871 437.73 86.5631 469.762C115.72 509.215 152.175 539.801 196.983 560.074C213.22 567.418 229.809 574.058 247.295 577.613C259.941 580.191 272.782 582.222 285.663 583.316C298.621 584.41 311.775 584.762 324.772 584.254C356.544 583.004 387.027 575.582 416.301 563.238C422.429 560.66 428.401 557.73 434.685 555.582C440.969 553.433 446.589 550.269 451.82 546.285C454.708 544.098 457.518 541.832 460.485 539.722C468.33 534.137 476.917 529.332 483.981 522.887C500.687 507.535 517.353 492.183 530.663 473.394C552.365 442.691 568.446 409.605 576.876 372.887C583.941 342.105 585.541 310.933 582.38 279.605C581.17 267.535 579.023 255.504 576.291 243.668C573.442 231.363 568.328 219.644 564.386 207.691C557.4 186.637 546.705 167.691 534.215 149.84C521.998 132.34 507.4 116.676 491.202 102.652C474.614 88.3553 456.503 76.285 437.3 65.6991C417.355 54.6834 395.575 48.9803 374.186 42.0272C373.249 41.7147 372.234 41.4803 371.259 41.3631C356.856 39.2537 342.531 36.5584 328.051 35.1912C306.349 33.1209 284.648 34.3709 263.18 38.3162C237.654 42.9647 212.791 50.1131 189.645 61.9881C160.215 77.1053 133.557 96.2069 110.685 120.269C101.746 129.683 92.8472 139.137 86.5241 150.66C85.7044 152.144 84.4554 153.355 83.4016 154.722C80.7084 158.238 77.781 161.597 75.4391 165.308C48.2732 208.902 34.9245 256.558 34.1829 308.629H34.1439Z" fill="black"/>
<path d="M354.787 293.082C354.475 299.019 349.674 305.816 343.078 311.441C329.846 322.73 314.468 329.371 297.372 332.574C268.176 338.082 237.186 318.746 224.617 293.316C221.885 287.808 220.597 281.91 222.705 275.777C224.032 271.91 225.983 268.473 230.472 267.848C235.312 267.183 238.981 269.371 241.089 273.629C245.811 283.16 252.837 290.582 261.424 296.676C274.226 305.777 287.926 307.496 302.602 301.832C310.916 298.629 318.527 294.215 325.592 288.746C328.753 286.285 332.071 284.019 335.506 281.91C337.379 280.777 339.526 279.996 341.634 279.41C350.143 277.027 355.178 281.012 354.826 293.043L354.787 293.082Z" fill="black"/>
<path d="M440.345 247.757C443.036 247.691 445.728 247.591 448.42 247.624C449.716 247.624 450.979 247.691 452.275 247.79C452.74 247.824 453.471 248.056 453.903 247.957C452.574 247.757 452.374 247.757 453.305 247.89C453.571 247.923 453.836 247.99 454.102 248.023C455.265 248.256 456.395 248.555 457.492 248.888C458.156 249.087 458.821 249.32 459.486 249.586L459.984 249.786C460.815 250.118 460.649 250.052 459.486 249.553C459.685 249.852 460.582 250.052 460.948 250.218C461.612 250.517 462.277 250.85 462.941 251.149C464.171 251.715 465.401 252.313 466.63 252.912C468.69 253.876 470.751 254.375 473.044 253.743C474.971 253.211 477.064 251.715 477.995 249.919C479.956 246.227 479.224 240.507 475.004 238.545C469.687 236.018 464.337 233.158 458.489 231.994C452.64 230.83 446.459 230.93 440.345 231.096C435.992 231.229 431.838 234.821 432.037 239.41C432.237 243.999 435.693 247.857 440.345 247.724V247.757Z" fill="black"/>
<path d="M162.484 201.76C164.998 200.795 167.5 199.798 170.047 198.927C171.268 198.492 172.48 198.131 173.734 197.791C174.184 197.666 174.951 197.64 175.324 197.401C174.005 197.659 173.817 197.726 174.738 197.539C175 197.481 175.273 197.455 175.534 197.397C176.708 197.226 177.873 197.129 179.017 197.075C179.71 197.04 180.415 197.036 181.13 197.064L181.667 197.085C182.561 197.12 182.382 197.113 181.119 197.033C181.407 197.248 182.319 197.135 182.719 197.169C183.446 197.228 184.184 197.319 184.91 197.378C186.258 197.498 187.617 197.65 188.976 197.801C191.24 198.019 193.349 197.798 195.297 196.434C196.934 195.286 198.405 193.174 198.679 191.17C199.288 187.035 196.681 181.891 192.047 181.458C186.191 180.86 180.191 179.96 174.291 180.825C168.391 181.69 162.601 183.856 156.897 186.064C152.84 187.649 150.132 192.426 151.858 196.682C153.585 200.939 158.135 203.414 162.473 201.729L162.484 201.76Z" fill="black"/>
</svg>
