<svg viewBox="0 0 620 620" fill="none" xmlns="http://www.w3.org/2000/svg">
<path d="M354.787 293.082C354.475 299.019 349.674 305.816 343.078 311.441C329.846 322.73 314.468 329.371 297.372 332.574C268.176 338.082 237.186 318.746 224.617 293.316C221.885 287.808 220.597 281.91 222.705 275.777C224.032 271.91 225.983 268.473 230.472 267.848C235.312 267.183 238.981 269.371 241.089 273.629C245.811 283.16 252.837 290.582 261.424 296.676C274.226 305.777 287.926 307.496 302.602 301.832C310.916 298.629 318.527 294.215 325.592 288.746C328.753 286.285 332.071 284.019 335.506 281.91C337.379 280.777 339.526 279.996 341.634 279.41C350.143 277.027 355.178 281.012 354.826 293.043L354.787 293.082Z" fill="black"/>
</svg>
