<?xml version="1.0" encoding="utf-8"?>
<!-- Generator: Adobe Illustrator 27.0.0, SVG Export Plug-In . SVG Version: 6.00 Build 0)  -->
<svg version="1.1" id="Layer_1" xmlns="http://www.w3.org/2000/svg" xmlns:xlink="http://www.w3.org/1999/xlink" x="0px" y="0px"
	 viewBox="0 0 619 620" style="enable-background:new 0 0 619 620;" xml:space="preserve">
<style type="text/css">
	.st0{display:none;}
	.st1{display:inline;}
</style>
<path class="st0" d="M480.3,243.4c-0.3,13.3-12,24.6-25.1,24.2c-13.4-0.4-24.5-11.8-24.3-24.8c0.2-13.7,11.6-25,25-24.7
	C469.5,218.4,480.6,229.9,480.3,243.4L480.3,243.4z"/>
<path class="st0" d="M175.4,213.9c-13.6-0.2-24.9-11.5-24.7-24.9c0.2-13.5,11.7-24.7,25.2-24.5c13.2,0.2,24.3,11.5,24.3,24.8
	C200.1,202.5,188.6,214,175.4,213.9z"/>
<path class="st0" d="M201.8,187.3c-13.4-12.9-27.1-25.6-41-38c-4.8-4.3-11.5,3.2-6.7,7.5c10.5,9.4,20.9,19,31.2,28.7
	c-6.6,0.4-13.2,0.4-19.8-0.1c-6.4-0.4-5.8,9.5,0.6,10c6.5,0.4,12.9,0.5,19.3,0.1c-10.1,7.6-21.1,13.9-32.7,18.8
	c-5.9,2.5-2.7,12,3.2,9.5c16.8-7.2,32-16.8,45.8-28.7c1.2-1.1,1.7-2.3,1.5-3.5C203.5,190.1,203.1,188.6,201.8,187.3z"/>
<path class="st0" d="M429.1,236.7c14.3-12,28.8-23.7,43.5-35.1c5.1-4,11.2,4,6.1,7.9c-11.2,8.7-22.2,17.5-33.1,26.5
	c6.5,0.9,13.1,1.3,19.8,1.3c6.4,0,5.1,9.9-1.3,9.9c-6.5,0-12.9-0.4-19.3-1.2c9.5,8.2,20.1,15.3,31.3,21.1c5.7,2.9,1.9,12.2-3.9,9.2
	c-16.2-8.3-30.8-19-43.7-31.8c-1.2-1.2-1.5-2.4-1.3-3.6C427.2,239.4,427.7,237.9,429.1,236.7z"/>
<g class="st0">
	<path class="st1" d="M488.2,201.5c-0.2,5.8-4.4,9.2-7.9,13c-6,6.4-12.7,12.1-19.3,17.9c-0.3,0.3-0.5,0.7-0.8,1
		c0.4,0.1,0.7,0.2,1.1,0.3c7.1,1.3,13.9,3.1,20,7.2c1.9,1.3,3.6,2.7,4.9,4.6c1.5,2.2,1.8,4.5,0.3,6.8c-1.6,2.3-3.9,3.1-6.6,2.4
		c-6.2-1.6-12.4-3.4-18.6-5.1c-0.5-0.1-1.4-0.2-1.4-0.2c-0.2,0.8,0.6,0.8,1,1.1c12.3,8.9,23.3,19.1,31.8,31.8
		c0.9,1.3,1.5,2.9,1.9,4.4c0.8,3.1,0,5.8-3,7.4c-2.9,1.5-5.6,0.7-7.5-1.7c-13.8-17.1-31.4-29.8-49.1-42.4c-2.3-1.6-4.4-3.6-6.5-5.5
		c-3-2.9-3-5.2,0.4-7.7c7.2-5.4,14.4-10.8,21.8-16c8.5-6,15.9-13.2,24-19.6c2.9-2.3,5.9-4.6,10-3.9
		C488.1,198.2,488.2,198.1,488.2,201.5z M459.1,249.4c0.3,0.2,0.5,0.3,0.6,0.3c0.1,0,0.2-0.1,0.3-0.2c-0.2-0.1-0.3-0.3-0.5-0.3
		C459.4,249.2,459.3,249.3,459.1,249.4z"/>
	<path class="st1" d="M177.1,195.4c-6.4-0.6-12.9-1.3-19.3-1.7c-3.6-0.3-6.7-1-7.5-5.1c-0.7-3.9,1.9-6,5.1-7.3
		c8-3.3,16.1-2.5,24.3-1.1c0.6,0.1,1.3,0.1,2,0.2c-0.2-0.6-0.4-1.2-0.7-1.7c-5-9.7-10.5-19.3-13.9-29.7c-1-3.2-1.3-6.2,0.1-9.3
		c0.7-1.4,1.6-1.9,3.2-1.7c4.3,0.7,6.9,3.6,8.7,7.1c9,17,19.6,33.1,30.1,49.3c2.8,4.4,2.1,6.4-2.7,8.4c-9.2,3.7-18.9,5.4-28.4,8.3
		c-13.3,4-26.3,8.7-38.4,15.7c-4.2,2.4-7.5,2-9.5-0.8c-2.1-2.8-1.5-6.7,2-9.7c6.3-5.4,13.6-9.3,21.3-12.4
		C161.2,200.6,168.8,197,177.1,195.4z"/>
</g>
<g>
	<path d="M172.4,195.9c-7-2.1-25,1.5-26.8-6.8c0.5-13.1,22.7-9.2,31.4-8.3c-2.6-8.2-21.5-28.7-8.4-32.5c4.3,0.7,6.9,3.6,8.7,7.1
		c9,17,16.7,23.2,27.2,39.3c8.7,11.2-24.7,13.2-31.1,16.7c-13.3,4-16.8,3.8-28.9,10.8c-8.3,5.4-14.9-4.5-7.5-10.5
		C150,201.3,156.5,200.2,172.4,195.9z"/>
	<path d="M459.5,248.6c7.3,0.5,22.9,10.1,27.5,2.9c4-12.5-18.1-16.5-26.6-18.7c5.3-6.8,30.2-19.4,19.1-27.6c-4.3-0.9-7.7,1-10.6,3.6
		c-14.4,12.9-23.7,16-39.2,27.4c-12.1,7.5,18.6,20.9,23.3,26.4c11.1,8.4,14.5,9.4,23.4,20.2c5.9,8,15.6,0.9,10.7-7.2
		C478.7,261.5,472.9,258.2,459.5,248.6z"/>
</g>
</svg>
