<?xml version="1.0" encoding="utf-8"?>
<!-- Generator: Adobe Illustrator 27.0.0, SVG Export Plug-In . SVG Version: 6.00 Build 0)  -->
<svg version="1.1" id="Layer_1" xmlns="http://www.w3.org/2000/svg" xmlns:xlink="http://www.w3.org/1999/xlink" x="0px" y="0px"
	 viewBox="0 0 619 620" style="enable-background:new 0 0 619 620;" xml:space="preserve">
	 
<path d="M480.3,243.4c-0.3,13.3-12,24.6-25.1,24.2c-13.4-0.4-24.5-11.8-24.3-24.8c0.2-13.7,11.6-25,25-24.7
	C469.5,218.4,480.6,229.9,480.3,243.4L480.3,243.4z"/>
<path d="M175.4,213.9c-13.6-0.2-24.9-11.5-24.7-24.9c0.2-13.5,11.7-24.7,25.2-24.5c13.2,0.2,24.3,11.5,24.3,24.8
	C200.1,202.5,188.6,214,175.4,213.9z"/>
<path d="M480.3,243.4c-0.3,13.3-12,24.6-25.1,24.2c-13.4-0.4-24.5-11.8-24.3-24.8c0.2-13.7,11.6-25,25-24.7
	C469.5,218.4,480.6,229.9,480.3,243.4L480.3,243.4z"/>
<path d="M175.4,213.9c-13.6-0.2-24.9-11.5-24.7-24.9c0.2-13.5,11.7-24.7,25.2-24.5c13.2,0.2,24.3,11.5,24.3,24.8
	C200.1,202.5,188.6,214,175.4,213.9z"/>
</svg>
