
<svg version="1.1" id="Layer_1" xmlns="http://www.w3.org/2000/svg" xmlns:xlink="http://www.w3.org/1999/xlink" x="0px" y="0px"
	 viewBox="0 0 619 620" style="enable-background:new 0 0 619 620;" xml:space="preserve">
<style type="text/css">
	.st0{display:none;}
</style>
<path class="st0" d="M480.3,243.4c-0.3,13.3-12,24.6-25.1,24.2c-13.4-0.4-24.5-11.8-24.3-24.8c0.2-13.7,11.6-25,25-24.7
	C469.5,218.4,480.6,229.9,480.3,243.4L480.3,243.4z"/>
<path class="st0" d="M175.4,213.9c-13.6-0.2-24.9-11.5-24.7-24.9c0.2-13.5,11.7-24.7,25.2-24.5c13.2,0.2,24.3,11.5,24.3,24.8
	C200.1,202.5,188.6,214,175.4,213.9z"/>
<path d="M201.8,187.3c-13.4-12.9-27.1-25.6-41-38c-4.8-4.3-11.5,3.2-6.7,7.5c10.5,9.4,20.9,19,31.2,28.7c-6.6,0.4-13.2,0.4-19.8-0.1
	c-6.4-0.4-5.8,9.5,0.6,10c6.5,0.4,12.9,0.5,19.3,0.1c-10.1,7.6-21.1,13.9-32.7,18.8c-5.9,2.5-2.7,12,3.2,9.5
	c16.8-7.2,32-16.8,45.8-28.7c1.2-1.1,1.7-2.3,1.5-3.5C203.5,190.1,203.1,188.6,201.8,187.3z"/>
<path d="M429.1,236.7c14.3-12,28.8-23.7,43.5-35.1c5.1-4,11.2,4,6.1,7.9c-11.2,8.7-22.2,17.5-33.1,26.5c6.5,0.9,13.1,1.3,19.8,1.3
	c6.4,0,5.1,9.9-1.3,9.9c-6.5,0-12.9-0.4-19.3-1.2c9.5,8.2,20.1,15.3,31.3,21.1c5.7,2.9,1.9,12.2-3.9,9.2
	c-16.2-8.3-30.8-19-43.7-31.8c-1.2-1.2-1.5-2.4-1.3-3.6C427.2,239.4,427.7,237.9,429.1,236.7z"/>
</svg>
