<svg viewBox="0 0 620 620" fill="none" xmlns="http://www.w3.org/2000/svg">
<path d="M440.345 247.757C443.036 247.691 445.728 247.591 448.42 247.624C449.716 247.624 450.979 247.691 452.275 247.79C452.74 247.824 453.471 248.056 453.903 247.957C452.574 247.757 452.374 247.757 453.305 247.89C453.571 247.923 453.836 247.99 454.102 248.023C455.265 248.256 456.395 248.555 457.492 248.888C458.156 249.087 458.821 249.32 459.486 249.586L459.984 249.786C460.815 250.118 460.649 250.052 459.486 249.553C459.685 249.852 460.582 250.052 460.948 250.218C461.612 250.517 462.277 250.85 462.941 251.149C464.171 251.715 465.401 252.313 466.63 252.912C468.69 253.876 470.751 254.375 473.044 253.743C474.971 253.211 477.064 251.715 477.995 249.919C479.956 246.227 479.224 240.507 475.004 238.545C469.687 236.018 464.337 233.158 458.489 231.994C452.64 230.83 446.459 230.93 440.345 231.096C435.992 231.229 431.838 234.821 432.037 239.41C432.237 243.999 435.693 247.857 440.345 247.724V247.757Z" fill="black"/>
<path d="M354.787 293.082C354.475 299.019 349.674 305.816 343.078 311.441C329.846 322.73 314.468 329.371 297.372 332.574C268.176 338.082 237.186 318.746 224.617 293.316C221.885 287.808 220.597 281.91 222.705 275.777C224.032 271.91 225.983 268.473 230.472 267.848C235.312 267.183 238.981 269.371 241.089 273.629C245.811 283.16 252.837 290.582 261.424 296.676C274.226 305.777 287.926 307.496 302.602 301.832C310.916 298.629 318.527 294.215 325.592 288.746C328.753 286.285 332.071 284.019 335.506 281.91C337.379 280.777 339.526 279.996 341.634 279.41C350.143 277.027 355.178 281.012 354.826 293.043L354.787 293.082Z" fill="black"/>
<path d="M162.484 201.76C164.998 200.795 167.5 199.798 170.047 198.927C171.268 198.492 172.48 198.131 173.734 197.791C174.184 197.666 174.951 197.64 175.324 197.401C174.005 197.659 173.817 197.726 174.738 197.539C175 197.481 175.273 197.455 175.534 197.397C176.708 197.226 177.873 197.129 179.017 197.075C179.71 197.04 180.415 197.036 181.13 197.064L181.667 197.085C182.561 197.12 182.382 197.113 181.119 197.033C181.407 197.248 182.319 197.135 182.719 197.169C183.446 197.228 184.184 197.319 184.91 197.378C186.258 197.498 187.617 197.65 188.976 197.801C191.24 198.019 193.349 197.798 195.297 196.434C196.934 195.286 198.405 193.174 198.679 191.17C199.288 187.035 196.681 181.891 192.047 181.458C186.191 180.86 180.191 179.96 174.291 180.825C168.391 181.69 162.601 183.856 156.897 186.064C152.84 187.649 150.132 192.426 151.858 196.682C153.585 200.939 158.135 203.414 162.473 201.729L162.484 201.76Z" fill="black"/>
</svg>
