<svg width="27" height="63" viewBox="0 0 27 63" fill="none" xmlns="http://www.w3.org/2000/svg">
<path d="M10.4347 45.7761C11.1147 31.2261 10.1947 16.4561 11.1347 1.88612C18.8247 -10.7339 16.5947 43.9861 17.0147 47.2861C19.0147 44.7261 19.6947 41.0361 22.2547 38.7661C24.1847 36.8661 27.3847 38.8061 26.1947 41.5361C22.5947 47.3761 20.7047 54.0161 17.2647 59.9161C16.0147 62.0561 14.1547 64.4961 12.1747 61.4461C11.1347 59.2661 9.48469 57.4761 8.42469 55.2961C6.23469 50.7961 3.76469 46.4561 0.694688 42.4861C-0.205312 41.3161 -0.215312 40.0261 0.574688 39.1761C4.46469 36.3961 7.99469 43.5661 10.4247 45.7761H10.4347Z" fill="#BDBDBD"/>
</svg>
