<svg width="28" height="26" viewBox="0 0 28 26" fill="none" xmlns="http://www.w3.org/2000/svg">
<path d="M27.3006 14.2247C27.3006 15.8743 27.2813 16.9836 27.3006 18.093C27.3681 21.4983 24.9951 24.5563 21.5994 25.0772C20.2393 25.2894 18.8405 25.3377 17.461 25.3955C14.5091 25.5306 11.5476 25.6753 8.59573 25.7235C7.36095 25.7428 6.08759 25.6849 4.89141 25.4148C2.75949 24.9325 1.0038 22.5884 0.820513 20.3986C0.68546 18.72 0.328533 17.0608 0.251359 15.3823C0.0970127 12.5076 -0.124861 9.60395 0.0873661 6.73889C0.328533 3.52655 2.68232 0.873712 6.40593 0.536078C8.58608 0.343145 10.7855 0.333498 12.9753 0.237031C14.7503 0.159858 16.5253 0.044098 18.3099 0.00551134C19.3711 -0.013782 20.4322 0.015158 21.4837 0.130918C24.1076 0.410671 25.8343 2.63905 26.1816 4.93496C26.6832 8.19553 26.9726 11.485 27.291 14.2343L27.3006 14.2247ZM24.4645 15.7103C24.2426 13.3469 24.0208 10.6747 23.7217 8.02189C23.5963 6.93182 23.6156 5.73563 22.8149 4.87708C22.2072 4.23075 21.4644 3.40114 20.683 3.28538C19.2264 3.07315 17.6925 3.26609 16.1973 3.3722C12.8113 3.60372 9.43499 3.91241 6.03936 4.12464C4.05215 4.25005 2.90419 5.52341 2.86561 7.52991C2.80773 10.887 3.11642 14.2247 3.41547 17.5528C3.51193 18.6718 3.54087 19.8391 4.24508 20.7941C4.9107 21.7009 5.68243 22.598 6.85933 22.6559C8.30633 22.7331 9.77262 22.6269 11.2196 22.5112C14.6731 22.2218 18.117 21.8552 21.5705 21.5755C23.0657 21.4501 24.4549 20.0706 24.4549 18.5753C24.4549 17.7168 24.4549 16.8679 24.4549 15.7006L24.4645 15.7103Z" fill="black"/>
<path d="M12.8211 18.5753C11.9625 18.3535 10.6988 18.1316 9.53156 17.6879C9.04923 17.5046 8.61513 16.8968 8.41255 16.3759C7.554 14.2247 7.66976 12.0253 8.39326 9.85476C8.66336 9.04444 9.32898 8.61034 10.1104 8.36917C11.9818 7.80966 13.8533 7.89648 15.7247 8.35952C15.908 8.40776 16.0817 8.51387 16.2553 8.51387C17.6637 8.55246 18.1846 9.53642 18.5223 10.6747C18.8213 11.6876 19.0818 12.7198 19.3519 13.752C19.6027 14.7167 19.5062 15.6813 19.1782 16.6171C18.8599 17.5432 18.1557 18.0737 17.2393 18.1991C15.9177 18.3824 14.5768 18.4306 12.8307 18.5753H12.8211ZM10.284 13.0478C10.3901 13.7809 10.5059 14.4176 10.583 15.0543C10.6699 15.7392 11.0364 15.9707 11.7117 15.9611C13.2841 15.9418 14.8469 15.9707 16.4193 16.0093C16.7955 16.0093 16.9499 15.8743 16.892 15.527C16.6508 14.0511 16.4289 12.5751 16.1202 11.1088C16.0624 10.8387 15.7054 10.4432 15.4546 10.4239C14.0751 10.3178 12.6957 10.2792 11.3162 10.2792C11.1233 10.2792 10.8049 10.5975 10.747 10.8194C10.5445 11.5719 10.4191 12.3436 10.284 13.0478Z" fill="black"/>
<path d="M19.8339 8.40776C18.9464 8.42706 18.2133 7.7325 18.2036 6.8643C18.2036 6.07327 18.7149 5.48482 19.4287 5.46553C20.5188 5.43659 21.2809 6.01539 21.3098 6.88359C21.3388 7.70356 20.6732 8.37882 19.8339 8.39812V8.40776Z" fill="black"/>
</svg>
