<svg width="28" height="24" viewBox="0 0 28 24" fill="none" xmlns="http://www.w3.org/2000/svg">
<path d="M11.6638 23.4512C10.8738 23.4512 9.80376 23.4512 8.73376 23.4512C8.39376 23.4512 8.05376 23.5012 7.72376 23.5712C6.46376 23.8212 5.29376 23.5812 4.25376 22.8512C3.96376 22.6512 3.72376 22.3512 3.55376 22.0412C1.00376 17.4712 0.483757 12.4212 0.0337567 7.35118C0.0137567 7.08118 0.0637567 6.81118 0.0337567 6.55118C-0.216243 4.39118 0.943757 3.24118 2.80376 2.52118C5.73376 1.39118 8.76376 0.721175 11.8738 0.421175C13.9538 0.221175 16.0438 0.0311752 18.1338 0.00117519C19.7038 -0.0188248 21.2838 0.221175 22.8538 0.361175C23.4738 0.421175 23.8538 0.791175 24.0738 1.37118C25.5638 5.26118 26.9638 9.19118 27.2038 13.3912C27.3138 15.2512 27.2938 17.1512 27.0138 18.9812C26.7638 20.6012 25.4038 21.5612 23.8838 21.9012C19.9538 22.7712 16.0538 23.9412 11.6638 23.4512ZM3.14376 7.47118C3.14376 7.86118 3.11376 8.08117 3.14376 8.28117C3.83376 12.0312 4.52376 15.7912 5.23376 19.5312C5.39376 20.3812 6.12376 20.7612 7.00376 20.6012C7.86376 20.4412 8.73376 20.3112 9.60376 20.2612C12.5638 20.0712 15.5238 19.9312 18.4838 19.7612C19.7738 19.6912 21.0638 19.6412 22.3438 19.5012C22.7638 19.4612 23.4438 19.2312 23.5038 18.9712C23.8638 17.4212 24.4238 15.8012 24.2638 14.2712C23.9938 11.6812 23.2738 9.13118 22.6838 6.57118C22.4838 5.72118 22.0938 4.91118 21.7738 4.04118C21.5938 4.15118 21.5138 4.18118 21.4738 4.23118C19.8238 6.48118 18.1338 8.71117 16.5238 11.0012C15.0138 13.1612 14.5038 13.3012 12.1438 12.0612C9.45376 10.6412 6.74376 9.26118 4.04376 7.87118C3.79376 7.74118 3.53376 7.64118 3.13376 7.47118H3.14376ZM17.9238 3.52118C17.8938 3.44118 17.8538 3.36118 17.8238 3.27118C13.7338 3.40118 9.68376 3.83118 5.64376 4.69118C5.80376 4.93118 5.98376 5.07118 6.18376 5.17118C8.52376 6.35118 10.8638 7.52118 13.1938 8.72118C13.6338 8.95117 13.8538 8.86117 14.1338 8.46117C15.0338 7.17118 15.9738 5.90118 16.9238 4.64118C17.2238 4.24118 17.5838 3.89118 17.9238 3.51118V3.52118Z" fill="black"/>
</svg>
