<svg width="88" height="72" viewBox="0 0 88 72" fill="none" xmlns="http://www.w3.org/2000/svg">
<path d="M33.2465 70.9619C32.5065 70.9619 31.7665 70.9619 31.0265 70.9619C30.8699 70.9619 30.6849 70.9619 30.5711 70.905C28.3368 69.4677 25.6471 68.8415 23.7544 66.7638C21.9612 64.8141 20.0258 62.9641 18.0192 61.2279C13.5507 57.3712 8.9967 53.6142 4.49966 49.8003C3.20463 48.7045 1.93806 47.566 0.75688 46.3563C-0.239298 45.3459 -0.210836 44.4351 0.600338 43.2967C0.714187 43.1259 0.842267 42.9266 0.870729 42.7274C1.75306 37.0065 3.63157 31.5844 5.79469 26.262C8.37053 19.9576 11.3591 13.8525 15.0165 8.10311C16.1265 6.36691 17.4357 4.74457 18.7308 3.13645C19.0296 2.76644 19.5989 2.49605 20.0827 2.43913C23.299 2.02642 26.5152 1.5141 29.7457 1.34333C38.939 0.873703 48.1465 0.517925 57.3398 0.176379C61.0114 0.0340675 64.683 -0.0513192 68.3547 0.0340675C69.6639 0.0625298 70.9874 0.603312 72.2682 1.04448C73.0367 1.30064 73.0082 2.05489 72.7521 2.70952C71.6705 5.3992 70.7455 8.17426 69.422 10.7359C65.3804 18.6057 61.8368 26.6889 58.2933 34.7864C57.9517 35.5692 58.0513 35.9534 58.8483 36.3519C65.5369 39.6108 71.4001 44.1078 77.2349 48.6476C79.5546 50.4549 81.9312 52.1769 84.2366 53.9985C85.2897 54.8381 86.2859 55.7916 87.1824 56.802C88.5771 58.3532 88.1502 60.1178 86.1863 60.8294C84.1654 61.5694 82.1019 62.2383 80.01 62.7933C70.532 65.3122 60.8406 66.7638 51.2204 68.5427C46.8515 69.3538 42.454 70.0085 38.0566 70.6773C36.477 70.9193 34.8546 70.9619 33.2607 71.09C33.2607 71.0616 33.2607 71.0331 33.2607 71.0046L33.2465 70.9619ZM4.98352 42.5851C5.55277 42.4855 5.93701 42.4143 6.32125 42.3432C10.5479 41.5747 14.7461 40.7208 18.9869 40.0662C23.4697 39.3831 27.9952 38.885 32.4923 38.33C39.3801 37.4619 46.2822 36.6223 53.1701 35.7399C53.4262 35.7115 53.7678 35.5407 53.8816 35.3272C54.2374 34.6441 54.5078 33.9184 54.8209 33.2068C56.9556 28.1974 58.9764 23.1596 61.2391 18.2072C63.573 13.0982 65.9212 7.97503 69.3366 3.44953C69.4362 3.32146 69.4789 3.13645 69.5359 3.00837C67.017 3.19337 64.5407 3.44953 62.0503 3.54915C51.0781 3.96185 40.1201 4.28917 29.148 4.73034C26.501 4.84418 23.8682 5.28535 21.2355 5.6269C20.9224 5.66959 20.5239 5.98267 20.3816 6.28153C19.2289 8.67235 18.2185 11.1343 16.9804 13.4825C12.2699 22.5192 8.42745 31.9118 5.26814 41.5889C5.18276 41.8451 5.12583 42.1155 4.99775 42.5709L4.98352 42.5851ZM67.885 47.4521C67.5008 47.1248 67.2731 46.9114 67.0312 46.7406C63.5872 44.1221 60.1149 41.532 56.6852 38.8992C55.9025 38.3015 55.2336 37.9173 54.337 38.6431C54.1378 38.7996 53.8105 38.8281 53.5401 38.8708C52.3447 39.0558 51.1493 39.1839 49.9681 39.3973C49.4985 39.4827 49.0715 39.81 48.6161 39.8527C47.6626 39.9239 46.6807 39.8243 45.7272 39.9096C45.0156 39.9808 44.3326 40.3081 43.621 40.3935C42.9948 40.4789 42.326 40.3223 41.6998 40.3935C36.7758 41.0197 31.8376 41.6743 26.9137 42.3432C20.8512 43.1543 14.803 43.9797 8.74053 44.8052C7.94359 44.919 7.16088 45.1182 6.12201 45.3317C6.6201 45.7444 6.90472 45.9863 7.17511 46.214C11.4444 49.7434 15.7138 53.2442 19.9404 56.8162C20.6662 57.4282 21.2497 57.6132 22.1605 57.3712C28.2514 55.7489 34.3138 54.0127 40.4617 52.6323C48.0753 50.9245 55.7744 49.5014 63.4307 47.9929C64.8111 47.7225 66.22 47.6514 67.8566 47.4664L67.885 47.4521ZM30.0587 67.6603C47.3353 63.7041 64.7115 60.0609 82.5573 58.1397C82.2727 57.9262 82.1019 57.7982 81.9312 57.6843C79.953 56.3608 77.9322 55.0943 76.0252 53.6854C73.734 52.0061 71.5424 50.1987 69.2797 48.4768C68.9524 48.2206 68.4258 47.9645 68.0558 48.0356C65.0815 48.6049 62.1499 49.3022 59.1756 49.843C46.7945 52.0915 34.6127 55.1796 22.4024 58.1539C22.2316 58.1966 22.0751 58.2963 21.8332 58.4101C24.6509 61.4413 27.8956 63.9745 30.073 67.6461L30.0587 67.6603Z" fill="black"/>
<path d="M22.3029 9.92458C20.9936 12.8135 19.6274 15.6597 18.3893 18.5771C17.1512 21.5087 16.0554 24.4972 14.8742 27.4573C13.693 30.4174 12.4834 33.3775 11.2453 36.4229C12.8249 36.1241 14.3477 35.754 15.8989 35.5406C21.0648 34.8006 26.2306 34.0605 31.3965 33.3917C35.922 32.8082 40.4618 32.2817 45.0015 31.7836C46.9085 31.5701 48.8154 31.4278 50.7224 31.3139C51.4482 31.2712 51.7755 30.9866 51.989 30.2751C53.7252 24.3407 55.6891 18.4775 58.8768 13.1123C59.7449 11.6465 60.6415 10.2092 61.5238 8.75763C61.6946 8.473 61.8227 8.15992 62.0077 7.78991C61.78 7.73299 61.6377 7.67606 61.4954 7.67606C57.9518 7.76145 54.4083 7.81837 50.8647 7.94645C47.6912 8.0603 44.5034 8.25954 41.3299 8.43031C36.3632 8.7007 31.3965 9.01379 26.4299 9.26995C25.2629 9.32687 24.0818 9.26995 22.9148 9.21302C22.7013 9.21302 22.4879 8.94263 22.2744 8.80032C22.5021 8.64378 22.7156 8.38762 22.9575 8.35916C28.223 7.90376 33.4743 7.4199 38.7398 7.06412C42.6534 6.79373 46.5811 6.58027 50.4947 6.56604C54.4794 6.53757 58.4641 6.76527 62.4488 6.89335C62.705 6.89335 62.9612 6.99297 63.26 7.04989C58.6064 14.5924 55.4756 22.6899 52.8144 30.9866C52.7148 31.3139 52.6578 31.6697 52.4586 31.9259C52.3305 32.0967 51.989 32.1393 51.747 32.1536C51.4055 32.1536 51.0497 31.997 50.7366 32.054C46.695 32.7655 42.6676 33.6052 38.6117 34.1886C32.5066 35.071 26.3587 35.7683 20.2394 36.5652C17.1227 36.9779 14.0061 37.4333 10.8753 37.8603C10.6333 37.8887 10.2776 37.8033 10.1495 37.6326C10.0499 37.4902 10.1922 37.1487 10.2633 36.9068C10.5053 36.1525 10.733 35.3983 11.0176 34.6583C12.6399 30.3462 14.2481 26.0342 15.9416 21.7506C16.7385 19.744 17.6635 17.7802 18.617 15.8447C19.5563 13.9378 20.5951 12.0877 21.6055 10.2092C21.6909 10.0384 21.8617 9.92458 22.004 9.78227C22.0894 9.82496 22.189 9.88188 22.2744 9.92458H22.3029Z" fill="black"/>
<path d="M33.8014 16.9407C34.9399 16.7272 36.0926 16.3714 37.2311 16.343C39.4369 16.286 41.6285 16.4284 43.8343 16.4995C44.6171 16.528 45.3998 16.5991 46.1825 16.8695C46.1113 16.9122 46.0544 16.9834 45.9832 16.9834C43.5355 16.9834 41.102 16.9122 38.6542 16.9549C37.3734 16.9691 36.0926 17.1826 34.8118 17.2822C34.4703 17.3107 34.1145 17.2395 33.7729 17.2111V16.9407H33.8014Z" fill="black"/>
<path d="M23.4409 17.4956C24.5225 16.8125 25.5187 16.1721 26.9845 16.5563C28.863 17.0544 30.8553 17.4671 32.7623 15.859C32.8192 16.3286 32.9331 16.6133 32.8619 16.7983C32.7908 16.9406 32.4919 17.026 32.2784 17.0544C31.8088 17.1398 31.2538 17.026 30.8838 17.2394C29.7168 17.951 28.5499 17.4814 27.4114 17.339C26.0737 17.1683 24.7644 16.8267 23.4551 17.4956H23.4409Z" fill="black"/>
<path d="M30.457 21.2812C30.9978 20.9112 31.5244 20.7404 32.179 21.0677C32.4209 21.1958 32.7909 21.1104 33.0898 21.0677C33.6306 21.0108 34.1429 20.7831 34.6125 21.3665C34.7406 21.5373 35.2529 21.4519 35.5802 21.4235C36.5906 21.3381 37.601 21.21 38.6115 21.1246C38.8819 21.0962 39.1665 21.1815 39.4511 21.21C39.4511 21.3096 39.4653 21.395 39.4796 21.4946C39.1807 21.58 38.8819 21.6939 38.583 21.7366C37.416 21.8789 36.2633 22.0212 35.0964 22.135C34.4417 22.2062 33.7302 22.2773 33.716 21.2669H30.4713L30.457 21.2812Z" fill="black"/>
<path d="M34.271 25.7923C33.2464 26.1196 32.2218 26.4469 31.1829 26.7742C30.7275 26.02 29.9448 26.4327 29.3329 26.2477C29.2048 26.205 29.0055 26.0485 29.0198 25.9773C29.0482 25.835 29.1763 25.6358 29.3044 25.5788C29.5605 25.4792 29.8452 25.4365 30.1156 25.4365C31.4533 25.4365 32.791 25.4365 34.1287 25.4365C34.1714 25.5504 34.2141 25.6642 34.2568 25.7781L34.271 25.7923Z" fill="black"/>
<path d="M21.1362 26.1624C21.4066 26.1055 21.677 25.9632 21.9332 25.9916C23.0859 26.1197 24.2386 26.2905 25.3771 26.447C25.5336 26.4613 25.7329 26.5466 25.8325 26.4897C26.6294 25.9489 27.2556 26.4328 27.896 27.0305L21.1789 26.5324C21.1789 26.4186 21.1505 26.2905 21.1362 26.1766V26.1624Z" fill="black"/>
<path d="M33.0189 12.6143C31.4962 12.8846 30.0873 12.9558 28.6357 12.3439C29.1765 11.8173 32.1508 12.0165 33.0189 12.6143Z" fill="black"/>
<path d="M30.4426 21.2669C29.1903 21.9073 27.9522 22.5477 26.6714 21.2669C27.881 20.8684 29.1618 21.1957 30.4426 21.2669Z" fill="black"/>
<path d="M37.3022 12.5431C38.4265 11.547 39.9492 11.4758 41.0023 12.3581C39.75 12.4151 38.6542 12.472 37.3022 12.5431Z" fill="black"/>
<path d="M23.3418 21.4235C23.541 21.3096 23.6549 21.1816 23.7403 21.1958C24.1672 21.2527 24.5799 21.3523 25.0068 21.452C24.9215 21.5943 24.8788 21.8362 24.7507 21.8789C24.2384 22.0639 23.7545 22.0497 23.3418 21.4377V21.4235Z" fill="black"/>
<path d="M59.7311 45.7871C58.9484 45.6733 58.1372 45.6164 57.3687 45.4314C57.1268 45.3744 56.9702 44.976 56.771 44.7198C57.0129 44.5775 57.2406 44.421 57.4968 44.3071C57.9949 44.0936 58.5072 43.9371 59.0053 43.7236C59.6599 43.439 60.2434 43.6525 60.5422 44.1648C60.7272 44.5063 60.6134 45.0756 60.4853 45.5025C60.4142 45.716 60.0157 45.8298 59.7738 45.9722C59.7738 45.901 59.7453 45.8441 59.7311 45.7729V45.7871Z" fill="black"/>
<path d="M23.5413 51.5507C23.5555 52.2907 23.3136 52.8884 22.4882 52.8457C21.9758 52.8172 21.1647 52.9738 21.1789 51.9776C21.2074 51.1237 21.8335 50.2272 22.4882 50.2272C23.1286 50.2272 23.5413 50.7253 23.5413 51.5649V51.5507Z" fill="black"/>
<path d="M46.2817 45.0756C46.6517 45.1609 46.9363 45.1467 47.1213 45.2748C47.4914 45.5167 48.1602 45.9294 48.1033 46.1002C47.9325 46.6694 47.5198 47.1533 47.1783 47.6656C47.1356 47.7225 46.979 47.751 46.9221 47.7083C46.6802 47.5518 46.3244 47.4237 46.239 47.196C46.0113 46.6125 45.8975 45.9721 45.7979 45.346C45.7979 45.2748 46.1679 45.1325 46.2817 45.0756Z" fill="black"/>
<path d="M54.1949 44.8051C54.138 45.474 53.8391 46.1998 53.1418 46.0005C52.5014 45.8155 51.6049 45.1751 51.5337 44.6486C51.4341 43.8801 52.4445 43.8659 53.0849 43.7805C53.8107 43.6809 54.1665 44.0936 54.1949 44.8051Z" fill="black"/>
<path d="M16.8242 48.2491C16.3261 48.1068 15.9277 48.0784 15.643 47.8791C15.3727 47.6941 15.088 47.3383 15.0596 47.0395C15.0596 46.7976 15.3869 46.4702 15.643 46.2995C16.1127 45.9864 17.6496 46.4276 17.8631 46.9399C17.9485 47.1676 17.9627 47.5803 17.8204 47.7084C17.5358 47.9787 17.1231 48.1068 16.8242 48.2634V48.2491Z" fill="black"/>
<path d="M27.1412 50.2984C27.1697 49.5157 27.7531 48.8326 28.4078 48.8611C29.0339 48.8896 29.347 49.2738 29.3328 49.9C29.3043 50.7823 28.6639 51.5792 27.9808 51.5081C27.2693 51.4369 27.0985 50.9246 27.127 50.3127L27.1412 50.2984Z" fill="black"/>
<path d="M33.332 49.2452C32.6632 49.2309 32.1651 48.7044 32.1935 48.064C32.2362 47.3951 32.8624 46.6836 33.4032 46.7832C34.0436 46.897 34.5559 47.2528 34.5417 47.9928C34.5417 48.6759 33.9582 49.2452 33.3178 49.2309L33.332 49.2452Z" fill="black"/>
<path d="M40.5895 48.6333C39.636 48.6618 38.8248 48.0071 38.8533 47.3098C38.8533 46.9825 39.0525 46.6267 39.266 46.3563C39.3229 46.2852 39.7498 46.4844 40.006 46.584C40.2906 46.6979 40.6322 46.769 40.8314 46.9683C41.0733 47.2244 41.3722 47.6514 41.301 47.9075C41.2014 48.2348 40.7745 48.4768 40.6037 48.6191L40.5895 48.6333Z" fill="black"/>
<path d="M25.3486 45.0186C25.3486 45.8298 24.2955 46.9541 23.7547 46.8117C23.4274 46.7264 23.0432 46.3421 22.9435 46.0006C22.787 45.5167 23.9966 44.4351 24.5659 44.5348C24.879 44.5917 25.1636 44.9048 25.3486 45.0186Z" fill="black"/>
<path d="M46.012 41.5462C46.1259 41.6458 46.5528 41.8593 46.567 42.1012C46.5955 42.4143 46.3393 42.8128 46.0974 43.0405C45.7986 43.3109 45.3859 43.4532 45.0016 43.624C44.5035 43.8374 44.2331 43.6666 44.2189 43.1259C44.2047 42.4855 45.1297 41.5462 46.012 41.532V41.5462Z" fill="black"/>
<path d="M38.0284 41.8736C38.3272 42.3148 38.7684 42.6848 38.7115 42.9267C38.6261 43.3252 38.1991 43.6383 37.9145 43.994C37.4876 43.6383 37.0749 43.2683 36.6479 42.9125C37.0607 42.5994 37.4591 42.3005 38.0284 41.8594V41.8736Z" fill="black"/>
<path d="M50.1958 41.4039C50.6085 40.7635 51.8039 40.4931 52.2166 40.9912C52.3874 41.1904 52.4301 41.8166 52.2878 41.9162C52.0032 42.1296 51.5193 42.2435 51.192 42.1439C50.822 42.0443 50.5231 41.66 50.1958 41.4039Z" fill="black"/>
<path d="M32.0653 43.7237C31.4961 44.1079 31.1261 44.5633 30.8272 44.5064C30.4999 44.4637 30.0445 43.9941 29.9876 43.6525C29.888 43.069 30.4003 42.7275 30.9411 42.8271C31.2684 42.8983 31.5388 43.2825 32.0796 43.7094L32.0653 43.7237Z" fill="black"/>
<path d="M52.7574 53.2443C53.1132 53.2727 53.2128 53.2443 53.2982 53.287C55.2621 54.1835 57.1691 55.1797 58.5352 56.9444C58.5922 57.0155 58.6064 57.1151 58.6633 57.1863C59.6026 58.5952 59.6595 58.7517 58.0799 59.3636C55.931 60.189 53.6824 60.7725 51.4624 61.4414C50.5231 61.726 49.5696 61.9822 48.6019 62.1814C48.2888 62.2383 47.8334 62.1529 47.5915 61.9537C46.2538 60.9148 44.9445 59.8333 43.6353 58.7517C43.0376 58.2678 42.4399 57.7698 41.8421 57.2859C41.0452 56.6313 41.0452 56.1616 41.9987 55.8486C44.2472 55.0943 46.5242 54.397 48.8154 53.8277C50.1816 53.4862 51.6047 53.4008 52.7574 53.2443ZM43.7349 57.3001C44.973 58.3532 46.0546 59.2071 47.065 60.1606C47.5773 60.6444 48.0896 60.7725 48.73 60.6017C50.6085 60.1037 52.487 59.6056 54.3513 59.1075C55.3759 58.8229 56.4006 58.524 57.6102 58.1682C55.874 56.9017 54.2944 55.7347 52.7005 54.5962C52.5724 54.5108 52.2878 54.5962 52.1028 54.6389C50.7508 55.0658 49.3989 55.507 48.0611 55.9482C46.695 56.3893 45.3145 56.8163 43.7491 57.3144L43.7349 57.3001Z" fill="black"/>
</svg>
