<svg width="51" height="64" viewBox="0 0 51 64" fill="none" xmlns="http://www.w3.org/2000/svg">
<path d="M11.5791 59.4716C15.254 59.3449 18.5488 57.9509 21.4634 55.6699C22.2238 55.0363 22.9841 54.4027 23.8711 53.6424C28.4331 49.5873 36.2899 50.0942 40.4717 53.2622C42.4993 54.9096 43.8932 56.9371 44.0199 59.5983C44.0199 59.9785 44.2734 60.3586 44.1467 60.6121C44.1467 60.9922 44.0199 61.6259 43.7665 61.6259C43.513 61.7526 42.8794 61.6259 42.626 61.3724C40.8519 59.9785 39.3312 58.4578 37.5571 57.3173C33.8822 54.9096 28.8133 55.2898 25.5185 58.2044C21.8436 61.3724 17.7885 63.4 12.9731 63.9069C10.5653 64.1603 8.15762 63.9069 5.87662 63.0198C1.31463 61.2457 -0.839639 56.6837 0.300858 51.6148C0.807746 49.5873 1.18791 47.433 1.44136 45.4054C2.07497 40.4633 3.46891 35.9013 7.01712 32.2264C10.6921 28.298 14.367 24.2429 18.1687 20.3145C20.9565 17.3999 23.8711 14.4853 26.7857 11.6974C28.6866 9.9233 30.5874 8.1492 32.4882 6.37509C33.2486 5.61476 34.1356 5.10787 35.2761 5.10787C35.6563 5.10787 36.0364 4.7277 36.4166 4.47426C37.4304 3.46048 38.4442 2.44671 39.5847 1.43293C41.4855 -0.341174 44.5268 -0.467897 46.6811 1.05277C48.7086 2.44671 50.4827 4.09409 50.8629 6.75525C50.8629 7.51559 50.6095 8.1492 49.9759 8.90953C48.9621 9.9233 48.2018 11.0638 47.3147 12.2043L47.188 12.331C46.1742 13.0914 45.2871 13.725 44.907 15.1189C44.6535 16.1327 43.6398 16.893 42.8794 17.7801C39.4579 21.5817 36.0364 25.3834 32.615 29.185C28.94 33.2401 25.3918 37.2952 21.5901 41.3503C20.5764 42.3641 19.4359 43.2512 18.2954 44.0115C14.6204 46.6727 10.3119 47.8132 6.25679 49.8407C3.97579 50.9812 3.46891 51.6148 3.84907 54.1493C4.35596 57.3173 6.63696 59.2181 10.0584 59.4716C10.5653 59.4716 10.9455 59.4716 11.5791 59.4716ZM16.9014 40.0831C17.4083 39.4495 17.9152 38.6892 18.5488 37.8021C22.7306 32.4798 27.4194 27.4109 32.615 22.9757C35.9097 20.1878 38.8243 16.893 41.4855 13.4715C41.7389 13.2181 41.7389 12.5845 41.4855 12.4577C40.345 11.1905 39.3312 9.79658 37.9373 8.78281C36.6701 7.76903 36.5433 7.89575 35.4028 9.03625C35.1494 9.28969 34.7692 9.54314 34.3891 9.79658C33.6287 10.4302 32.8684 11.1905 32.1081 11.8241C31.221 12.7112 30.334 13.725 29.4469 14.612C22.8574 21.5817 16.2678 28.5514 9.805 35.6479C9.42484 36.028 9.04467 36.5349 8.66451 37.0418C9.67828 37.8021 10.5653 38.9426 11.9593 38.309C12.3394 38.1823 12.8463 38.309 13.2265 38.4357C14.4937 38.9426 15.6342 39.4495 16.9014 40.0831ZM44.6535 10.5569C45.5406 9.9233 46.4276 9.16297 47.4414 8.40264C47.9483 8.1492 48.075 7.89575 47.8216 7.38886C47.0613 4.60098 45.0337 3.20704 42.4993 2.44671C42.3725 2.44671 42.1191 2.44671 42.1191 2.44671C41.1053 3.46048 40.2183 4.47426 39.3312 5.23459C41.1053 7.0087 42.8794 8.7828 44.6535 10.5569ZM7.27057 46.1658C10.0584 45.0253 12.7196 43.8848 15.5075 42.6176C15.1273 42.2374 15.0006 41.8572 14.7472 41.6038C13.6067 40.7167 12.3394 40.4633 10.9455 40.8435C10.0584 41.3503 9.42484 41.0969 8.91795 40.4633C8.66451 40.2098 8.53778 39.9564 8.28434 39.8297C7.52401 39.3228 6.13007 39.4495 6.00335 40.2098C5.62318 41.7305 5.49646 43.2512 5.11629 44.8986C6.25679 44.6451 6.8904 45.152 7.27057 46.1658Z" fill="black"/>
</svg>
