<?xml version="1.0" encoding="UTF-8"?>
<svg id="Layer_2" data-name="Layer 2" xmlns="http://www.w3.org/2000/svg" viewBox="0 0 291.52 145.6">
  <defs>
    <style>
      .cls-1 {
        fill: #020202;
      }
    </style>
  </defs>
  <g id="Livello_1" data-name="Livello 1">
    <g>
      <path class="cls-1" d="M142.76,.14c19.3-.61,37.14,4.36,53.57,14.37,4.5,2.74,8.75,5.89,13.12,8.85,.35,.24,.69,.49,.99,.78,12.69,12.11,23.31,25.62,29,42.5,.8,2.39,1.72,4.75,1.74,7.3,.03,2.93-.65,5.58-3.29,7.37-3.1,2.1-7.29,.6-8.04-3.12-4.84-23.92-19.08-40.96-39.15-53.8-8.6-5.5-18.04-9.12-27.95-10.95-7.5-1.38-15.17-2.26-22.91-1.98-24.17,.88-44.38,10.53-61.47,27.28-3.56,3.49-6.82,7.19-9.5,11.46-1.64,2.61-3.88,4.86-5.37,7.62-.86,1.58-1.76,3.13-2.32,4.86-.34,1.03-.86,1.98-1.71,2.7-2.4,2.02-5.46,1.72-7.35-.98-1.91-2.72-2.47-5.62-.72-9.06,7.11-13.97,17.65-25.04,29.25-35.23,3.29-2.89,7.31-4.8,11.05-7.06C104.1,5.59,117.73,1.87,131.96,.2c3.55-.42,7.2-.06,10.8-.06Z"/>
      <path class="cls-1" d="M139.61,61.23c-7.76-.08-13.01-5.24-13.19-12.97-.08-3.33,1.92-5.33,4.92-4.92,1.75,.24,2.78,1.32,2.95,3.09,.12,1.25,.15,2.52,.4,3.75,.39,1.94,1.63,3.2,3.57,3.61,1.99,.41,3.68-.23,4.91-1.89,.79-1.06,1.34-2.25,1.83-3.49,.79-2.02,2.57-3.14,4.47-2.92,2.5,.29,3.71,1.87,3.48,4.53-.55,6.21-5.63,10.86-12.24,11.22-.36,.02-.72,0-1.08,0Z"/>
      <path class="cls-1" d="M103.23,36.47c3.81,.02,7,3.31,6.99,7.19-.01,3.95-3.34,7.25-7.24,7.17-3.8-.07-7.19-3.43-7.19-7.12,0-3.83,3.52-7.27,7.44-7.24Z"/>
      <path class="cls-1" d="M190.5,58.28c-.01,3.8-3.51,7.32-7.23,7.27-3.69-.04-7.04-3.48-7.07-7.25-.03-3.96,3.19-7.19,7.17-7.2,3.97-.01,7.14,3.18,7.13,7.18Z"/>
    </g>
    <g>
      <path d="M36.19,121.69H16.17l-2.69,8.47H0l18.33-53.9h15.71l18.33,53.9h-13.47l-2.69-8.47Zm-3.7-11.55l-6.31-19.79-6.31,19.79h12.63Z"/>
      <path d="M56.59,73.95h11.55v56.21h-11.55v-56.21Z"/>
      <path d="M118.04,110.91c0,11.47-8.32,20.33-18.4,20.33-5.16,0-8.93-1.77-11.47-4.7v3.62h-11.55v-53.9h11.55v19.02c2.54-2.93,6.31-4.7,11.47-4.7,10.09,0,18.4,8.85,18.4,20.33Zm-11.55,0c0-5.77-3.85-9.39-9.16-9.39s-9.16,3.62-9.16,9.39,3.85,9.39,9.16,9.39,9.16-3.62,9.16-9.39Z"/>
      <path d="M159.62,91.66l-13.17,37.34c-4.31,12.24-11.16,17.09-21.94,16.55v-10.78c5.39,0,7.93-1.69,9.62-6.39l-15.32-36.73h12.7l8.55,23.56,7.24-23.56h12.32Z"/>
      <path d="M181.87,120.92c3.16,0,5.85-1.23,7.39-2.93l9.24,5.31c-3.77,5.24-9.47,7.93-16.79,7.93-13.17,0-21.33-8.85-21.33-20.33s8.32-20.33,20.48-20.33c11.24,0,19.56,8.7,19.56,20.33,0,1.62-.15,3.16-.46,4.62h-27.33c1.46,4,5,5.39,9.24,5.39Zm7.08-14.01c-1.23-4.47-4.7-6.08-8.16-6.08-4.39,0-7.31,2.16-8.39,6.08h16.55Z"/>
      <path d="M246.09,91.66v38.5h-11.55v-3.62c-2.54,2.93-6.31,4.7-11.47,4.7-10.09,0-18.4-8.85-18.4-20.33s8.32-20.33,18.4-20.33c5.16,0,8.93,1.77,11.47,4.7v-3.62h11.55Zm-11.55,19.25c0-5.77-3.85-9.39-9.16-9.39s-9.16,3.62-9.16,9.39,3.85,9.39,9.16,9.39,9.16-3.62,9.16-9.39Z"/>
      <path d="M291.52,106.52v23.64h-11.55v-21.94c0-4.77-3-7.01-6.7-7.01-4.23,0-7.16,2.46-7.16,7.93v21.02h-11.55v-53.9h11.55v19.02c2.08-2.85,5.93-4.7,11.01-4.7,7.78,0,14.4,5.54,14.4,15.94Z"/>
    </g>
  </g>
</svg>