<?xml version="1.0" encoding="utf-8"?>
<!-- Generator: Adobe Illustrator 27.0.0, SVG Export Plug-In . SVG Version: 6.00 Build 0)  -->
<svg version="1.1" id="Layer_1" xmlns="http://www.w3.org/2000/svg" xmlns:xlink="http://www.w3.org/1999/xlink" x="0px" y="0px"
	 viewBox="0 0 1280 294" style="enable-background:new 0 0 1280 294;" xml:space="preserve">
<style type="text/css">
	.st0{fill:#CBCBCB;}
	.st1{fill:#030303;}
</style>
<path class="st0" d="M1444.3,14c1.4,91.1,0,182.2,0.6,273.3c-520.4,14.5-1069.8-0.1-1599.7,5c-19.9-62.8-0.3-146.7-7-216.3
	c6.2-12.8,43.4-11.9,61.2-17.5c269.8-48.4,546.6-21.6,818.1,1.9C961.1,64.7,1205.3,46.3,1444.3,14z"/>
<path class="st1" d="M1444.3,14c-239,32.3-483.2,50.6-726.7,46.4C426.4,35.6,123.7,5.2-161.5,71.6c-1.1-15.9-1.9-17.5,20.3-22
	C19.5,17.1,188.4,10.4,354.7,14.5c175.3,2.3,347.5,33.4,523.6,24.6C1025,34,1171.3,23.2,1316.7,8.3c41-3.9,82.1-7.3,123.5-8.3
	C1450-0.2,1442.2,10,1444.3,14z"/>
</svg>
