<?xml version="1.0" encoding="utf-8"?>
<!-- Generator: Adobe Illustrator 27.0.0, SVG Export Plug-In . SVG Version: 6.00 Build 0)  -->
<svg version="1.1" id="Layer_1" xmlns="http://www.w3.org/2000/svg" xmlns:xlink="http://www.w3.org/1999/xlink" x="0px" y="0px"
	 viewBox="0 0 1610 416" style="enable-background:new 0 0 1610 416;" xml:space="preserve">
<style type="text/css">
	.st0{fill:#9B9B9B;}
	.st1{fill:#030303;}
</style>
<path class="st0" d="M1608.2,27.9c1.3,126,0,252.5,0.4,378.6c-520.4,20.3-1069.6,0-1599.5,6.8c-19.8-86.4-1.2-157.3-8-253.6
	c6.3-17.6,134-66.6,152-74.2c269.7-67.1,494.6,19,766.1,51.4C1162.7,142.7,1369.1,72.9,1608.2,27.9z"/>
<path class="st1" d="M1608.7,42.6c-240.3,95.6-485.1,147.9-728.4,132.3C590.1,95.6,288.8-1.7,1.2,197.5
	c-0.3-48.7-1.1-53.5,21.2-66.9c162-97.3,331.1-115.6,497-101.1c175,9.2,346.2,106.8,522.5,82.4c147-13.8,293.7-44.8,439.7-88.1
	c41.1-11.1,82.2-21.5,123.7-23.7C1615.2-0.5,1607.1,30.2,1608.7,42.6z"/>
</svg>
