<?xml version="1.0" encoding="utf-8"?>
<!-- Generator: Adobe Illustrator 27.0.0, SVG Export Plug-In . SVG Version: 6.00 Build 0)  -->
<svg version="1.1" id="Layer_1" xmlns="http://www.w3.org/2000/svg" xmlns:xlink="http://www.w3.org/1999/xlink" x="0px" y="0px"
	 viewBox="0 0 1610 416" style="enable-background:new 0 0 1610 416;" xml:space="preserve">
<style type="text/css">
	.st0{fill:#CBCBCB;}
	.st1{fill:#030303;}
</style>
<path class="st0" d="M1823,28c1.6,126,0,252.5,0.5,378.6c-658.9,20.3-1354.3,0-2025.2,6.8c-25.1-86.4-1.5-157.3-10.1-253.6
	c8-17.6,169.7-66.6,192.5-74.2c341.5-67.1,626.2,19,970,51.4C1258.9,142.8,1520.2,73,1823,28z"/>
<path class="st1" d="M1821.7,42.7c-304.3,95.6-614.2,147.9-922.3,132.3C532,95.7,150.5-1.6-213.6,197.6
	c-0.4-48.7-1.4-53.5,26.8-66.9C18.3,33.4,232.4,15.1,442.5,29.6c221.6,9.2,438.3,106.8,661.6,82.4c186.1-13.8,371.9-44.8,556.7-88.1
	c52-11.1,104.1-21.5,156.6-23.7C1829.9-0.4,1819.7,30.3,1821.7,42.7z"/>
</svg>
