<svg width="625" height="118" viewBox="0 0 625 118" fill="none" xmlns="http://www.w3.org/2000/svg">
<path d="M170.505 82.8124C170.505 88.9959 170.814 94.561 168.031 99.8169C165.867 103.527 161.848 103.836 158.756 100.744C155.046 95.7976 155.046 83.7399 153.5 76.9381C153.191 75.3923 152.573 75.0831 151.336 75.0831C136.805 75.0831 122.274 75.0831 108.052 73.5372C106.506 73.2281 105.888 73.5372 105.579 75.0831C103.105 86.8317 100.941 98.5802 100.941 110.947C101.25 116.821 94.4483 118.367 91.6657 113.73C86.4098 101.054 88.2648 86.5225 90.1199 73.5372C91.0474 69.518 86.1006 70.4455 83.9364 67.6629C80.5355 64.2621 81.7722 59.6245 86.4098 58.3878C89.1924 56.8419 93.2116 59.9336 94.1391 56.2236C100.013 37.9824 108.67 10.466 126.911 1.19085C151.645 -8.08432 166.485 42.0016 168.65 59.9336C168.65 67.3538 176.997 60.2428 178.543 66.4263C179.471 70.4455 174.524 71.9914 171.432 72.3005C169.886 72.3005 169.577 73.2281 169.886 74.4647C171.123 76.9381 170.196 80.0299 170.505 82.8124ZM137.114 61.7887C139.897 61.7887 144.534 61.7887 148.863 61.7887C152.264 61.7887 151.954 61.7887 151.336 59.0061C149.481 46.33 145.462 34.5815 138.969 23.7604C137.732 21.9054 136.496 20.0504 134.95 18.1953C133.095 16.0311 132.477 16.0311 130.312 18.1953C120.419 29.3256 115.472 43.5475 110.525 57.4602C109.598 60.2428 109.598 60.2428 112.38 60.2428C120.11 60.8612 127.53 61.4795 137.114 61.7887Z" fill="black"/>
<path d="M541.821 57.4603C541.512 67.3538 540.893 77.2473 539.966 87.1408C539.657 92.3967 535.328 97.0343 530.072 96.416C518.633 94.561 522.652 79.7207 522.652 71.6822C522.961 68.5905 522.961 68.5905 519.87 68.5905C515.541 68.5905 511.522 68.8997 507.194 68.8997C505.648 68.8997 505.339 69.518 505.339 70.7547C505.339 76.3198 505.029 81.8849 504.72 87.7592C505.029 102.909 486.788 102.599 487.097 88.0683C487.097 78.1748 488.025 68.2813 488.953 58.3878C489.88 50.6585 489.262 42.3108 491.735 34.5815C492.972 29.6347 500.083 29.0164 501.629 34.2723C503.793 38.9099 504.102 44.1658 504.411 49.1126C504.102 55.2961 504.102 56.2236 510.595 54.3685C529.763 52.8227 521.416 58.0786 526.053 33.3448C526.672 29.6347 527.908 24.3788 532.546 24.3788C539.348 24.688 539.038 33.654 539.966 38.6007C541.203 44.475 542.13 50.9676 541.821 57.4603Z" fill="black"/>
<path d="M324.782 59.0061C333.439 46.6392 341.168 34.2723 352.298 24.3788C355.699 21.5962 360.028 24.688 358.791 28.7072C357.863 32.7265 356.008 35.8182 354.153 39.2191C340.55 64.5712 325.091 88.9959 308.087 112.493C305.304 116.203 296.338 120.222 294.174 114.348C292.01 109.092 294.483 103.836 297.575 99.5077C303.14 91.1601 309.014 82.8124 314.579 74.4647C315.507 72.9189 315.816 72.3005 314.27 71.0639C311.797 69.518 309.942 67.0446 308.396 64.5712C300.976 54.0594 293.246 43.5475 287.99 32.1081C285.826 27.1614 291.082 22.2146 295.72 24.688C307.159 30.5622 317.053 48.1851 324.782 59.0061Z" fill="black"/>
<path d="M243.779 69.8272C244.088 61.4795 243.16 53.1319 242.233 44.7842C241.614 40.4558 242.542 36.4365 245.015 33.0356C257.382 19.1229 288.299 34.2723 274.078 53.441C270.058 57.1511 286.754 55.9144 289.845 72.9189C291.7 89.305 266.657 92.3968 255.218 88.9959C254.6 88.6867 253.981 88.9959 253.363 89.305C241.305 92.7059 244.088 76.9381 243.779 69.8272ZM262.947 75.0831C265.112 74.7739 281.188 75.3923 277.169 70.7547C272.532 64.8804 264.184 64.2621 257.073 63.9529C256.146 63.9529 256.146 64.5712 256.146 65.1896C256.146 67.9721 256.455 70.7547 256.455 73.2281C256.455 76.3198 261.092 74.4648 262.947 75.0831ZM259.237 38.9099C257.073 38.9099 253.363 39.2191 253.672 42.0016C253.981 45.0934 254.29 47.8759 254.6 50.9676C254.6 51.586 254.909 52.2043 255.527 51.8952C258.928 50.6585 262.638 49.7309 265.112 46.9484C269.44 42.62 262.947 38.6007 259.237 38.9099Z" fill="black"/>
<path d="M450.306 68.2813C445.977 67.9721 441.649 67.663 437.63 67.3538C436.393 67.3538 436.084 67.663 435.775 68.5905C434.229 74.4648 432.992 80.6482 431.137 86.2133C430.21 88.3775 428.664 89.6142 426.19 89.6142C420.316 89.6142 419.698 81.8849 420.007 77.2473C422.171 61.1703 426.5 41.6925 440.103 31.1806C464.219 16.9587 474.73 67.3538 474.112 83.4308C474.112 89.6142 467.619 95.4885 462.673 89.6142C460.509 87.1408 459.89 83.7399 459.272 80.6482C456.18 66.7354 460.818 68.2813 450.306 68.2813ZM439.485 55.6052C444.122 55.2961 448.451 55.6052 452.47 56.2236C453.088 56.2236 454.325 56.5328 453.707 55.2961C452.779 53.441 449.069 39.8374 445.977 43.8567C443.195 47.5667 441.34 51.2768 439.485 55.6052Z" fill="black"/>
<path d="M386.926 94.2518C374.25 94.561 360.028 91.4692 361.264 75.7014C362.192 61.1703 367.139 47.2576 369.612 33.0356C373.013 27.1613 377.032 33.0356 381.67 32.4173C386.616 32.4173 391.563 32.7265 396.51 32.7265C399.911 32.7265 403.312 33.0356 406.403 33.9632C411.35 35.509 411.969 41.6925 407.022 43.8567C399.602 47.5667 388.162 46.3301 380.124 44.475C379.196 44.1659 378.578 44.1658 378.269 45.4025C377.65 48.8034 377.032 52.2043 376.105 55.6052C375.795 57.1511 376.414 57.1511 377.65 57.1511C380.433 57.1511 383.216 57.1511 385.998 58.3878C391.872 60.2428 392.182 65.1896 386.616 67.3538C381.361 70.7547 372.704 67.3538 373.631 71.9914C373.322 78.484 373.013 79.4115 380.124 79.4115C387.544 80.339 395.582 78.7932 402.075 82.5032C405.476 84.3583 405.785 88.3775 402.075 90.2325C397.747 93.9426 391.872 94.2518 386.926 94.2518Z" fill="black"/>
<path d="M189.983 52.8227C189.983 46.6392 189.983 40.4558 189.983 34.2723C189.673 30.2531 191.838 25.3063 195.857 24.9971C202.659 23.7605 205.132 31.1806 204.823 36.7457C205.75 49.4218 204.823 62.0978 206.06 74.7739C206.06 76.0106 206.678 76.9381 208.224 76.9381C211.316 76.9381 214.716 76.9381 217.808 76.629C222.755 76.3198 233.885 79.4115 229.248 85.9042C226.465 89.6142 222.755 91.4693 218.117 92.0876C213.789 92.7059 209.46 93.0151 205.132 92.3968C185.345 90.5417 190.91 66.7354 189.983 52.8227Z" fill="black"/>
<g clip-path="url(#clip0_53_22)">
<path d="M584.048 68.8626C583.611 66.2109 585.958 63.9265 588.467 65.6837C589.891 66.6102 590.554 68.2236 591.493 69.5655C596.947 79.4057 603.372 50.2845 614.863 60.0448C620.317 64.6454 621.774 71.6421 623.942 78.0159C624.428 79.0382 622.631 83.559 621.677 84.2299C620.107 85.3321 618.44 84.4855 618.229 82.329C617.938 79.4376 617.097 76.69 616.045 74.0063C614.944 71.2268 613.342 68.7348 611.448 66.4185C610.558 65.3163 609.749 65.2844 608.859 66.4185C607.289 68.4313 605.67 70.4281 604.068 72.4249C600.864 76.7379 595.264 81.9296 589.745 78.1437C586.379 75.9712 584.194 73 584.048 68.8626Z" fill="#848484"/>
</g>
<g clip-path="url(#clip1_53_22)">
<path d="M39.9911 69.8626C40.4281 67.2109 38.0814 64.9265 35.5729 66.6837C34.1486 67.6102 33.4851 69.2236 32.5464 70.5655C27.0924 80.4057 20.6672 51.2845 9.17649 61.0448C3.72243 65.6454 2.26585 72.6421 0.0971756 79.0159C-0.388348 80.0382 1.40809 84.559 2.36296 85.2299C3.93282 86.3321 5.59979 85.4855 5.81018 83.329C6.1015 80.4376 6.94308 77.69 7.99505 75.0063C9.09557 72.2268 10.6978 69.7348 12.5913 67.4185C13.4815 66.3163 14.2907 66.2844 15.1808 67.4185C16.7507 69.4313 18.3691 71.4281 19.9713 73.4249C23.1758 77.7379 28.7755 82.9296 34.2943 79.1437C37.6606 76.9712 39.8455 74 39.9911 69.8626Z" fill="#848484"/>
</g>
<defs>
<clipPath id="clip0_53_22">
<rect width="40.0396" height="26.6931" fill="white" transform="translate(584 58)"/>
</clipPath>
<clipPath id="clip1_53_22">
<rect width="40.0396" height="26.6931" fill="white" transform="matrix(-1 0 0 1 40.0396 59)"/>
</clipPath>
</defs>
</svg>
